<?xml version="1.0" encoding="UTF-8"?>
<svg version="1.1" xmlns="http://www.w3.org/2000/svg" width="500" height="500">
<path d="M0 0 C3.38602327 3.28521347 6.40395078 6.66354232 9.3125 10.375 C13.21159797 15.16258095 17.12156046 19.22501702 22 23 C22.90234375 23.69996094 23.8046875 24.39992187 24.734375 25.12109375 C37.22185579 34.39533253 50.78812112 42.14655225 64.26855469 49.87353516 C65.32204102 50.47858887 66.37552734 51.08364258 67.4609375 51.70703125 C68.40501465 52.24432861 69.3490918 52.78162598 70.32177734 53.33520508 C78.66916896 58.52398023 82.46095941 65.05926588 86 74 C87.96504779 73.8681713 87.96504779 73.8681713 90 73 C91.18510214 70.86514468 91.18510214 70.86514468 91.8125 68.25 C92.06644531 67.38890625 92.32039063 66.5278125 92.58203125 65.640625 C93.03351097 62.78828581 92.73334046 60.77372309 92 58 C89.69 57.67 87.38 57.34 85 57 C85 54.6875 85 54.6875 86 52 C91.48879801 49.20745364 95.89206827 48.40890983 102 49 C106.24104185 50.60039315 108.63830473 52.14706286 111 56 C111.44140625 58.62109375 111.44140625 58.62109375 111.5625 61.4375 C111.74434253 65.39946301 112.36189175 68.37510985 114 72 C115.61488722 69.57766917 116.88019257 67.27088226 118.1875 64.6875 C123.09982125 55.97163858 130.87841595 52.24260605 139.40234375 47.5546875 C159.43490887 36.49953415 177.79270295 24.57040728 193.015625 7.2421875 C195.2507536 4.71666818 197.57759186 2.34426594 200 0 C198.64458707 12.02330996 194.7102436 27.1330643 185.40625 35.41943359 C179.27600826 40.07929114 172.62714715 43.70476786 165.875 47.375 C164.06461048 48.36789873 162.25539467 49.36291435 160.44618225 50.35795593 C158.69288699 51.32184966 156.93849454 52.28374678 155.18408203 53.24560547 C149.41440368 56.42463542 143.70185018 59.70114768 138 63 C154.33831927 54.93225062 170.65503455 46.86265284 186 37 C187 40 187 40 186.01538086 42.38842773 C184.33727537 45.41356233 182.65208409 48.43284299 180.9375 51.4375 C180.36322266 52.48744141 179.78894531 53.53738281 179.19726562 54.61914062 C175.38021062 61.37106768 172.4749324 65.71151887 164.73046875 67.94140625 C163.56128906 68.14636719 162.39210938 68.35132813 161.1875 68.5625 C159.89070312 68.79710937 158.59390625 69.03171875 157.2578125 69.2734375 C155.83854654 69.51565355 154.41927547 69.7578397 153 70 C151.4138156 70.2824712 149.82788242 70.56635631 148.2421875 70.8515625 C144.16414278 71.58474582 140.08270441 72.29143147 136 73 C146.89 71.68 157.78 70.36 169 69 C166.0470041 74.9059918 161.14564791 78.00352239 156 82 C155.12021484 82.74636719 155.12021484 82.74636719 154.22265625 83.5078125 C151.49585478 85.66810397 149.94199069 86 146.4375 86 C140.4973633 84.89997469 134.73041485 82.87810853 129 81 C129.51949219 81.36351562 130.03898438 81.72703125 130.57421875 82.1015625 C141.21017203 89.76888556 141.21017203 89.76888556 142.6875 95.8125 C141.63814547 100.67768921 138.95335396 104.06219472 136 108 C135.37738281 108.85078125 134.75476563 109.7015625 134.11328125 110.578125 C130.62809187 115.22504417 130.62809187 115.22504417 129 117 C128.34 117 127.68 117 127 117 C127.09539062 116.26136719 127.19078125 115.52273437 127.2890625 114.76171875 C128.68535424 101.98402574 126.21533196 93.19932457 120 82 C120.34933594 82.90621094 120.69867188 83.81242187 121.05859375 84.74609375 C125.05562838 95.44637058 127.64582103 103.12141907 123 114 C122.67 114.66 122.34 115.32 122 116 C127.59008369 124.15220538 133.98158388 130.08930448 142.53125 135.0546875 C143.0159375 135.36664063 143.500625 135.67859375 144 136 C144 136.33 144 136.66 144 137 C141.93816367 137.08150744 139.87538651 137.1394194 137.8125 137.1875 C136.66394531 137.22230469 135.51539063 137.25710938 134.33203125 137.29296875 C129.21957661 136.84345633 126.8158171 134.87408975 123.375 131.1875 C121.16130663 128.21649047 119.52343311 125.36758899 118 122 C120.01717105 130.51694444 126.37126058 137.51842128 132 144 C126.99433712 144.29445076 124.00839253 144.11763863 120 141 C117.08103056 137.72468884 116.02561326 134.43314916 114.8125 130.25 C114.46832031 129.07953125 114.12414062 127.9090625 113.76953125 126.703125 C113.51558594 125.81109375 113.26164062 124.9190625 113 124 C110.03632554 126.43877299 109.40520628 128.35109414 108.9375 132.125 C108.51405315 138.67546348 110.79564726 142.18327414 115 147 C115.79664063 147.94166016 115.79664063 147.94166016 116.609375 148.90234375 C120.54799131 153.18793341 124.96301706 155.96646978 130.05859375 158.73828125 C130.69925781 159.15464844 131.33992187 159.57101562 132 160 C132 160.66 132 161.32 132 162 C119.21221079 162.75592843 119.21221079 162.75592843 114.5234375 159.51953125 C109.22072566 154.2304161 105.31814356 146.36842249 104 139 C104.05622603 136.19338385 104.44605686 133.76971569 105 131 C103.02 131.99 103.02 131.99 101 133 C101.25910156 132.35804688 101.51820313 131.71609375 101.78515625 131.0546875 C107.89352272 115.69538661 113 101.78148161 113 85 C109.04 98.2 105.08 111.4 101 125 C100.34 125 99.68 125 99 125 C94.71 111.14 90.42 97.28 86 83 C87.96498884 101.66739399 91.35696647 116.42696165 99 133 C97.02 132.01 97.02 132.01 95 131 C94.97470318 132.97646128 94.97470318 132.97646128 95.140625 134.84765625 C95.61433565 144.4402969 91.24592283 152.23941986 84.9375 159.3125 C81.33026005 162.45428964 77.89557354 162.10787697 73.3125 162.0625 C72.13300781 162.05347656 70.95351562 162.04445313 69.73828125 162.03515625 C68.83464844 162.02355469 67.93101562 162.01195312 67 162 C69.57423679 159.28081745 72.04420625 157.23251676 75.25 155.3125 C82.16712827 150.79239638 89.14464223 144.27775006 91 136 C90.34064163 132.20353811 89.28014634 128.63036372 88 125 C87.79246094 125.86882812 87.58492188 126.73765625 87.37109375 127.6328125 C84.27594263 139.21049073 84.27594263 139.21049073 78.8828125 143.12109375 C75.87900945 144.52328397 73.23011734 144.39552457 70 144 C70.36351562 143.53851563 70.72703125 143.07703125 71.1015625 142.6015625 C75.18141861 137.30821073 78.65793406 131.78343325 82 126 C80.91405209 127.01530682 80.91405209 127.01530682 80.01953125 128.5234375 C77.22053078 132.81704987 75.06535537 135.43434471 70 137 C65.98598375 137.22614176 62.01511476 137.17541764 58 137 C58 136.34 58 135.68 58 135 C59.62514074 133.8946653 61.30298735 132.86646119 63 131.875 C69.56826423 127.81538895 75.78431494 123.21529334 79 116 C78.0409375 114.8553125 78.0409375 114.8553125 77.0625 113.6875 C73.53909854 109.09640113 73.30590578 104.59705768 74 99 C75.35422186 93.5750994 77.18448427 88.28444756 79 83 C78.20044999 84.51670364 77.41078612 86.03861998 76.625 87.5625 C76.18414062 88.40941406 75.74328125 89.25632812 75.2890625 90.12890625 C72.4261808 96.50532457 71.72195269 102.06803029 71.875 108.9375 C71.88402344 109.71673828 71.89304687 110.49597656 71.90234375 111.29882812 C71.92566309 113.19935447 71.96152414 115.09972008 72 117 C57.56397144 102.97423158 57.56397144 102.97423158 57.125 95.625 C58.49571684 89.94631595 61.59578921 86.82922633 66.3125 83.625 C67.199375 83.08875 68.08625 82.5525 69 82 C68.29875 82.20496094 67.5975 82.40992188 66.875 82.62109375 C51.82852024 86.89380335 51.82852024 86.89380335 47.73046875 84.890625 C44.18237209 82.43385993 40.94561933 79.70026929 37.6875 76.875 C37.04232422 76.32457031 36.39714844 75.77414063 35.73242188 75.20703125 C34.13321968 73.8295174 32.56369405 72.41769285 31 71 C31 70.67 31 70.34 31 70 C42.03863582 70.68428738 53.0083433 71.79302704 64 73 C63.16339844 72.86948242 62.32679688 72.73896484 61.46484375 72.60449219 C58.32453079 72.10805844 55.1864365 71.59969289 52.04931641 71.08349609 C50.69818602 70.8636195 49.34629813 70.64834133 47.99365234 70.43798828 C30.70045417 67.7411185 30.70045417 67.7411185 25.22265625 62.203125 C24.83980469 61.55859375 24.45695312 60.9140625 24.0625 60.25 C23.59714844 59.48042969 23.13179687 58.71085937 22.65234375 57.91796875 C22.10707031 56.95503906 21.56179687 55.99210937 21 55 C20.20997508 53.64172947 19.41958152 52.28367331 18.62890625 50.92578125 C12 39.41275788 12 39.41275788 12 37 C15.3399946 38.26921264 18.39969793 39.70384448 21.484375 41.50390625 C22.3297583 41.99342773 23.1751416 42.48294922 24.04614258 42.98730469 C25.384552 43.76702637 25.384552 43.76702637 26.75 44.5625 C36.05322369 49.93635616 45.46487995 55.0512352 55 60 C48.97064255 56.46878754 42.93333151 52.95404877 36.859375 49.5 C34.82291667 48.33333333 32.78645833 47.16666667 30.75 46 C29.72648437 45.4225 28.70296875 44.845 27.6484375 44.25 C14.11051997 36.45438682 8.03680051 29.05296937 3.25 14.3125 C2.93417969 13.37599609 2.61835938 12.43949219 2.29296875 11.47460938 C0.94507755 7.38717306 0 4.35415935 0 0 Z " fill="#010101" transform="translate(150,133)"/>
<path d="M0 0 C5 0 5 0 6.58203125 1.53125 C6.98808594 2.1809375 7.39414063 2.830625 7.8125 3.5 C8.23144531 4.1496875 8.65039062 4.799375 9.08203125 5.46875 C9.38496094 5.9740625 9.68789062 6.479375 10 7 C10.33 4.69 10.66 2.38 11 0 C12.32 0 13.64 0 15 0 C15 5.28 15 10.56 15 16 C10 15 10 15 8.41796875 13.37109375 C8.01191406 12.73300781 7.60585937 12.09492188 7.1875 11.4375 C6.76855469 10.79683594 6.34960938 10.15617187 5.91796875 9.49609375 C5.61503906 9.00238281 5.31210938 8.50867188 5 8 C4.67 10.64 4.34 13.28 4 16 C2.68 16 1.36 16 0 16 C0 10.72 0 5.44 0 0 Z " fill="#2B292A" transform="translate(124,337)"/>
<path d="M0 0 C5 0 5 0 6.58203125 1.53125 C6.98808594 2.1809375 7.39414063 2.830625 7.8125 3.5 C8.23144531 4.1496875 8.65039062 4.799375 9.08203125 5.46875 C9.38496094 5.9740625 9.68789062 6.479375 10 7 C10.33 4.69 10.66 2.38 11 0 C12.32 0 13.64 0 15 0 C15 5.28 15 10.56 15 16 C10 15 10 15 8.41796875 13.37109375 C8.01191406 12.73300781 7.60585937 12.09492188 7.1875 11.4375 C6.76855469 10.79683594 6.34960938 10.15617187 5.91796875 9.49609375 C5.61503906 9.00238281 5.31210938 8.50867188 5 8 C4.67 10.64 4.34 13.28 4 16 C2.68 16 1.36 16 0 16 C0 10.72 0 5.44 0 0 Z " fill="#292728" transform="translate(244,337)"/>
<path d="M0 0 C5 1 5 1 6.58203125 2.62890625 C6.98808594 3.26699219 7.39414062 3.90507812 7.8125 4.5625 C8.44091797 5.52349609 8.44091797 5.52349609 9.08203125 6.50390625 C9.38496094 6.99761719 9.68789063 7.49132812 10 8 C10.33 5.36 10.66 2.72 11 0 C12.32 0 13.64 0 15 0 C15 5.28 15 10.56 15 16 C8.87232474 14.77446495 8.51818479 13.72441958 5 9 C4.67 11.31 4.34 13.62 4 16 C2.68 16 1.36 16 0 16 C0 10.72 0 5.44 0 0 Z " fill="#353434" transform="translate(390,337)"/>
<path d="M0 0 C0.66 0 1.32 0 2 0 C6.5522232 19.04888639 6.5522232 19.04888639 3.625 26.5 C2 29 2 29 0 30 C-4.38089727 23.4286541 -3.80581779 16.08466261 -2.3203125 8.5546875 C-1.60706176 5.68130596 -0.84510037 2.83712266 0 0 Z " fill="#010101" transform="translate(249,281)"/>
<path d="M0 0 C0.33 0 0.66 0 1 0 C0.70830543 9.17379412 0.18157064 18.85959788 -5.83984375 26.26171875 C-8.30816741 28.24798282 -9.62591461 28.56623027 -12.75 28.75 C-13.54921875 28.80671875 -14.3484375 28.8634375 -15.171875 28.921875 C-15.77515625 28.94765625 -16.3784375 28.9734375 -17 29 C-15.70082389 26.15300903 -14.28888074 24.07229955 -12.14453125 21.8046875 C-8.74497537 17.93512313 -6.73795427 13.81637466 -4.6875 9.125 C-1.07150986 1.07150986 -1.07150986 1.07150986 0 0 Z " fill="#020202" transform="translate(247,273)"/>
<path d="M0 0 C10.46441251 -0.36933221 10.46441251 -0.36933221 12.875 1.29296875 C14.75183549 4.14080594 13.62991245 6.79317298 13 10 C12.84188612 13.05270463 12.84188612 13.05270463 14 16 C12.35 15.67 10.7 15.34 9 15 C8.67 14.01 8.34 13.02 8 12 C6.68 12 5.36 12 4 12 C4 13.32 4 14.64 4 16 C2.68 16 1.36 16 0 16 C0 10.72 0 5.44 0 0 Z M4 3 C4 4.65 4 6.3 4 8 C5.65 8 7.3 8 9 8 C9.59070014 6.05396726 9.59070014 6.05396726 10 4 C8.93354885 2.70366379 8.93354885 2.70366379 6.4375 2.9375 C5.633125 2.958125 4.82875 2.97875 4 3 Z " fill="#252322" transform="translate(73,337)"/>
<path d="M0 0 C2.5625 1.5 2.5625 1.5 4 4 C4.78961917 8.05614898 4.69067794 10.9639831 2.375 14.4375 C-0.58696412 16.3861606 -2.44757366 16.92895147 -6 17 C-11.61176471 14.77647059 -11.61176471 14.77647059 -13 12 C-13.56580566 4.98400984 -13.56580566 4.98400984 -11.5625 1.5 C-7.74317604 -0.73570183 -4.31481639 -0.76004105 0 0 Z M-7 3 C-8.73647948 4.67488528 -8.73647948 4.67488528 -10 7 C-9.33228817 9.39263407 -8.77902615 11.22097385 -7 13 C-4.58462162 13.41717279 -4.58462162 13.41717279 -2 13 C0.0785608 11.42304368 0.0785608 11.42304368 1 9 C0.74183257 6.22941974 0.74183257 6.22941974 -1 4 C-4.05272465 3.10169161 -4.05272465 3.10169161 -7 3 Z " fill="#1F1F1F" transform="translate(229,337)"/>
<path d="M0 0 C2.90961476 1.45480738 3.05318608 3.36306748 4.1875 6.375 C7.57756943 14.78999482 12.27209988 21.99366265 18 29 C13.54303626 29.54575066 10.77787508 29.29303018 7.25 26.5625 C3.43446653 22.95228672 2.17226011 19.01727326 1 14 C0.773125 13.175 0.54625 12.35 0.3125 11.5 C-0.16616909 7.67064726 -0.07555986 3.85355305 0 0 Z " fill="#020202" transform="translate(252,273)"/>
<path d="M0 0 C1.32 0 2.64 0 4 0 C4.33 3.96 4.66 7.92 5 12 C6.65 12 8.3 12 10 12 C10.33 8.04 10.66 4.08 11 0 C12.32 0 13.64 0 15 0 C15.08133791 1.91595968 15.13934367 3.83291932 15.1875 5.75 C15.22230469 6.81734375 15.25710938 7.8846875 15.29296875 8.984375 C14.96654802 12.34433237 14.36391155 13.63608845 12 16 C8.30888074 17.20362584 6.70401049 17.34418291 3.1875 15.625 C1 14 1 14 0 13 C-0.07258946 10.81360547 -0.08373783 8.62499611 -0.0625 6.4375 C-0.05347656 5.23996094 -0.04445313 4.04242188 -0.03515625 2.80859375 C-0.02355469 1.88175781 -0.01195312 0.95492188 0 0 Z " fill="#313131" transform="translate(294,337)"/>
<path d="M0 0 C2.64453125 1.03515625 2.64453125 1.03515625 4.4453125 4.4140625 C4.96958618 5.80106503 5.47283178 7.19616069 5.95703125 8.59765625 C6.22064453 9.30857422 6.48425781 10.01949219 6.75585938 10.75195312 C7.40349374 12.5064535 8.0264213 14.27003814 8.64453125 16.03515625 C6.99453125 16.03515625 5.34453125 16.03515625 3.64453125 16.03515625 C3.64453125 15.04515625 3.64453125 14.05515625 3.64453125 13.03515625 C1.00453125 13.03515625 -1.63546875 13.03515625 -4.35546875 13.03515625 C-4.68546875 14.02515625 -5.01546875 15.01515625 -5.35546875 16.03515625 C-6.67546875 15.70515625 -7.99546875 15.37515625 -9.35546875 15.03515625 C-8.37920844 12.72138946 -7.39961743 10.40913562 -6.41796875 8.09765625 C-6.14017578 7.43830078 -5.86238281 6.77894531 -5.57617188 6.09960938 C-2.99897996 0.04476089 -2.99897996 0.04476089 0 0 Z M-1.35546875 5.03515625 C-1.68546875 6.68515625 -2.01546875 8.33515625 -2.35546875 10.03515625 C-1.03546875 10.03515625 0.28453125 10.03515625 1.64453125 10.03515625 C0.98453125 8.38515625 0.32453125 6.73515625 -0.35546875 5.03515625 C-0.68546875 5.03515625 -1.01546875 5.03515625 -1.35546875 5.03515625 Z " fill="#292827" transform="translate(371.35546875,336.96484375)"/>
<path d="M0 0 C1.21816406 0.03480469 1.21816406 0.03480469 2.4609375 0.0703125 C3.68683594 0.09738281 3.68683594 0.09738281 4.9375 0.125 C5.87722656 0.15980469 5.87722656 0.15980469 6.8359375 0.1953125 C6.8359375 1.5153125 6.8359375 2.8353125 6.8359375 4.1953125 C4.5259375 3.8653125 2.2159375 3.5353125 -0.1640625 3.1953125 C1.33943147 6.20230043 3.8778323 6.77788709 6.8359375 8.1953125 C7.8359375 9.1953125 7.8359375 9.1953125 8.2109375 11.5703125 C7.8359375 14.1953125 7.8359375 14.1953125 5.7734375 16.1328125 C1.85282968 17.55090469 -0.33584763 16.6215102 -4.1640625 15.1953125 C-4.1640625 13.8753125 -4.1640625 12.5553125 -4.1640625 11.1953125 C-1.5240625 11.8553125 1.1159375 12.5153125 3.8359375 13.1953125 C2.01914095 11.18727421 0.59482495 10.07195259 -1.8515625 8.8203125 C-2.6146875 8.2840625 -3.3778125 7.7478125 -4.1640625 7.1953125 C-4.6015625 4.6328125 -4.6015625 4.6328125 -4.1640625 2.1953125 C-2.1640625 0.1953125 -2.1640625 0.1953125 0 0 Z " fill="#2C2B29" transform="translate(275.1640625,336.8046875)"/>
<path d="M0 0 C1.65 0.33 3.3 0.66 5 1 C6.375237 3.41337686 7.36054611 5.49297801 8.3125 8.0625 C8.57611328 8.72572266 8.83972656 9.38894531 9.11132812 10.07226562 C9.75854732 11.70796505 10.38164295 13.3531728 11 15 C9.68 15.33 8.36 15.66 7 16 C6.67 15.01 6.34 14.02 6 13 C3.36 13 0.72 13 -2 13 C-2.33 13.99 -2.66 14.98 -3 16 C-4.32 15.67 -5.64 15.34 -7 15 C-3.535 7.575 -3.535 7.575 0 0 Z M2 5 C1.34 6.65 0.68 8.3 0 10 C1.32 10 2.64 10 4 10 C3.67 8.35 3.34 6.7 3 5 C2.67 5 2.34 5 2 5 Z " fill="#222121" transform="translate(156,337)"/>
<path d="M0 0 C1.65 0 3.3 0 5 0 C6.0044134 2.2898234 7.00367612 4.5816599 8 6.875 C8.28617188 7.52597656 8.57234375 8.17695313 8.8671875 8.84765625 C11 13.7734375 11 13.7734375 11 16 C9.68 16 8.36 16 7 16 C6.67 15.34 6.34 14.68 6 14 C3.69 14 1.38 14 -1 14 C-1.33 14.66 -1.66 15.32 -2 16 C-3.32 16 -4.64 16 -6 16 C-4.25192871 10.53262809 -2.34205919 5.24175152 0 0 Z M2 5 C1.34 6.65 0.68 8.3 0 10 C1.32 10 2.64 10 4 10 C3.67 8.35 3.34 6.7 3 5 C2.67 5 2.34 5 2 5 Z " fill="#21201F" transform="translate(103,337)"/>
<path d="M0 0 C0.66 1.32 1.32 2.64 2 4 C0.68 4 -0.64 4 -2 4 C-4.00401011 4.30830925 -6.00511766 4.63729412 -8 5 C-8.04254356 6.99954746 -8.04080783 9.00041636 -8 11 C-6.96298597 12.26626225 -6.96298597 12.26626225 -4.6875 12.0625 C-3.800625 12.041875 -2.91375 12.02125 -2 12 C-0.68 12 0.64 12 2 12 C1.375 13.9375 1.375 13.9375 0 16 C-3.32566085 17.03465004 -5.38452481 17.16785687 -8.75 16.25 C-11 15 -11 15 -13 12 C-13.65364121 5.13676732 -13.65364121 5.13676732 -11.5625 1.5 C-7.78106272 -0.71352426 -4.2792407 -0.32917236 0 0 Z " fill="#21211E" transform="translate(204,337)"/>
<path d="M0 0 C4.62 0 9.24 0 14 0 C14 0.99 14 1.98 14 3 C12.35 3 10.7 3 9 3 C9 7.29 9 11.58 9 16 C7.68 16 6.36 16 5 16 C5 11.71 5 7.42 5 3 C3.35 3 1.7 3 0 3 C0 2.01 0 1.02 0 0 Z " fill="#2F2F2F" transform="translate(340,337)"/>
<path d="M0 0 C4.62 0 9.24 0 14 0 C14 0.99 14 1.98 14 3 C12.35 3 10.7 3 9 3 C9 7.29 9 11.58 9 16 C7.68 16 6.36 16 5 16 C5 11.71 5 7.42 5 3 C3.35 3 1.7 3 0 3 C0 2.01 0 1.02 0 0 Z " fill="#313131" transform="translate(415,337)"/>
<path d="M0 0 C1.65 0 3.3 0 5 0 C6.97610386 2.04424538 8 3.1176825 8 6 C7.34 6 6.68 6 6 6 C5.34 9.3 4.68 12.6 4 16 C2.68 16 1.36 16 0 16 C0 10.72 0 5.44 0 0 Z " fill="#222122" transform="translate(244,337)"/>
<path d="M0 0 C0.99 0 1.98 0 3 0 C3 4.29 3 8.58 3 13 C5.31 13 7.62 13 10 13 C10 13.99 10 14.98 10 16 C6.7 16 3.4 16 0 16 C0 10.72 0 5.44 0 0 Z " fill="#262624" transform="translate(321,337)"/>
<path d="M0 0 C1.32 0 2.64 0 4 0 C4 2.31 4 4.62 4 7 C3.01 7.495 3.01 7.495 2 8 C2.37904208 11.29075996 2.37904208 11.29075996 4 14 C6.33293334 14.04320247 8.6670134 14.04022391 11 14 C11.99 14 12.98 14 14 14 C11.06978621 16.15456896 9.56503279 17.02260131 5.875 16.875 C2.81284459 15.94303966 1.83032808 15.5603123 0 13 C-0.29296875 9.86328125 -0.29296875 9.86328125 -0.1875 6.3125 C-0.16042969 5.13300781 -0.13335937 3.95351563 -0.10546875 2.73828125 C-0.07066406 1.83464844 -0.03585937 0.93101562 0 0 Z " fill="#292929" transform="translate(294,337)"/>
<path d="M0 0 C8.75 -0.125 8.75 -0.125 11 1 C10.67 2.32 10.34 3.64 10 5 C9.236875 4.525625 8.47375 4.05125 7.6875 3.5625 C5.03589452 1.89893903 5.03589452 1.89893903 2 1 C2 2.98 2 4.96 2 7 C4.2236068 8.2981424 4.2236068 8.2981424 8 8 C7.67 8.99 7.34 9.98 7 11 C4.69 10.34 2.38 9.68 0 9 C0 6.03 0 3.06 0 0 Z " fill="#333230" transform="translate(74,338)"/>
<path d="M0 0 C0.33 0 0.66 0 1 0 C1.1546875 1.175625 1.1546875 1.175625 1.3125 2.375 C1.77595022 5.33045181 1.77595022 5.33045181 5 7 C8.84302321 7.40452876 11.51256514 6.59425594 15 5 C13.25 8.875 13.25 8.875 11 10 C9.29297265 10.06996014 7.58331997 10.08440154 5.875 10.0625 C4.96492187 10.05347656 4.05484375 10.04445313 3.1171875 10.03515625 C2.41851562 10.02355469 1.71984375 10.01195312 1 10 C0.05685873 6.58389775 -0.08065117 3.54865136 0 0 Z " fill="#2B2B2B" transform="translate(217,342)"/>
<path d="M0 0 C0.103125 0.78375 0.20625 1.5675 0.3125 2.375 C0.77595022 5.33045181 0.77595022 5.33045181 4 7 C2.02 7.33 0.04 7.66 -2 8 C-2.33 8.99 -2.66 9.98 -3 11 C-4.32 10.67 -5.64 10.34 -7 10 C-3.03773585 0 -3.03773585 0 0 0 Z " fill="#272625" transform="translate(156,342)"/>
<path d="M0 0 C2 1 2 1 2.625 2.5625 C3.16368951 6.06398181 3.05903219 9.45806833 3 13 C1.68 13 0.36 13 -1 13 C-1 11.68 -1 10.36 -1 9 C-1.66 8.67 -2.32 8.34 -3 8 C-2.2575 7.4121875 -2.2575 7.4121875 -1.5 6.8125 C0.45593143 4.44908285 0.24207973 2.98564997 0 0 Z " fill="#383837" transform="translate(402,340)"/>
<path d="M0 0 C0.99 0 1.98 0 3 0 C4.60355101 3.50776784 5.22036864 6.14354879 5 10 C4.01 10 3.02 10 2 10 C1.34 8.35 0.68 6.7 0 5 C-0.66 5 -1.32 5 -2 5 C-1.34 3.35 -0.68 1.7 0 0 Z " fill="#282723" transform="translate(105,337)"/>
<path d="M0 0 C4.62 0 9.24 0 14 0 C14 0.99 14 1.98 14 3 C10.95613276 3.08226668 8.92824652 2.97608217 6 2 C5.67 2.66 5.34 3.32 5 4 C3.35 3.67 1.7 3.34 0 3 C0 2.01 0 1.02 0 0 Z " fill="#242424" transform="translate(340,337)"/>
<path d="M0 0 C7.75 1.625 7.75 1.625 10 5 C5.94568308 6.15837626 3.78187881 5.83691257 0 4 C0 2.68 0 1.36 0 0 Z " fill="#222121" transform="translate(271,348)"/>
<path d="M0 0 C0.99 0.33 1.98 0.66 3 1 C2.375 2.9375 2.375 2.9375 1 5 C-2 5.875 -2 5.875 -5 6 C-5.66 5.34 -6.32 4.68 -7 4 C-5.824375 3.8453125 -5.824375 3.8453125 -4.625 3.6875 C-1.66954819 3.22404978 -1.66954819 3.22404978 0 0 Z " fill="#161615" transform="translate(203,348)"/>
<path d="M0 0 C1.32 0 2.64 0 4 0 C4 2.64 4 5.28 4 8 C3.34 6.68 2.68 5.36 2 4 C1.34 5.32 0.68 6.64 0 8 C0 5.36 0 2.72 0 0 Z " fill="#2C2C2A" transform="translate(401,337)"/>
<path d="M0 0 C4.455 1.98 4.455 1.98 9 4 C9 4.33 9 4.66 9 5 C6.69 5.33 4.38 5.66 2 6 C1.34 4.02 0.68 2.04 0 0 Z " fill="#2B2B29" transform="translate(193,347)"/>
<path d="M0 0 C1.32 0 2.64 0 4 0 C4 1.32 4 2.64 4 4 C3.01 4.495 3.01 4.495 2 5 C1.34 5.99 0.68 6.98 0 8 C0 5.36 0 2.72 0 0 Z " fill="#201E1E" transform="translate(255,337)"/>
<path d="M0 0 C0.99 0.99 1.98 1.98 3 3 C2.01 3.495 2.01 3.495 1 4 C0.67 4.99 0.34 5.98 0 7 C-0.66 7.66 -1.32 8.32 -2 9 C-2.33 8.34 -2.66 7.68 -3 7 C-2.06421005 4.64018187 -1.06652192 2.30368736 0 0 Z " fill="#2D2C2D" transform="translate(395,339)"/>
<path d="M0 0 C0.66 0.33 1.32 0.66 2 1 C1.67 1.99 1.34 2.98 1 4 C1.66 4.33 2.32 4.66 3 5 C1.6875 6.5 1.6875 6.5 0 8 C-0.99 8 -1.98 8 -3 8 C-1.125 2.25 -1.125 2.25 0 0 Z " fill="#1F1E1C" transform="translate(156,337)"/>
<path d="M0 0 C0.66 0.33 1.32 0.66 2 1 C2.625 3.5625 2.625 3.5625 3 6 C2.34 6 1.68 6 1 6 C0.67 6.66 0.34 7.32 0 8 C-0.66 6.35 -1.32 4.7 -2 3 C-1.34 2.67 -0.68 2.34 0 2 C0 1.34 0 0.68 0 0 Z " fill="#242321" transform="translate(372,337)"/>
<path d="M0 0 C1.65 0 3.3 0 5 0 C5.33 0.99 5.66 1.98 6 3 C4.68 3 3.36 3 2 3 C1.34 3.99 0.68 4.98 0 6 C0 4.02 0 2.04 0 0 Z " fill="#1C1B1C" transform="translate(244,337)"/>
<path d="" fill="#000000" transform="translate(0,0)"/>
</svg>
